<?xml version="1.0" encoding="UTF-8"?>
<svg id="Calque_1" data-name="Calque 1" xmlns="http://www.w3.org/2000/svg" viewBox="0 0 573.81 264.71">
  <defs>
    <style>
      .cls-1 {
        fill: #312783;
      }

      .cls-2 {
        fill: #e94e1b;
      }

      .cls-3 {
        fill: #3c393d;
      }
    </style>
  </defs>
  <polygon class="cls-1" points="492.19 65.4 459.36 110 427.34 65.4 399.03 65.4 399.03 179.83 425.63 179.83 425.63 102.58 458.39 147.23 492.02 102.55 492.02 179.83 519.81 179.83 519.81 65.4 492.19 65.4"/>
  <path class="cls-1" d="m326.85,65.4h-131.25v21.45h127.99c10.29,0,18.1,2.83,23.42,8.49s7.98,14.78,7.98,27.36-2.66,21.39-7.98,27.11c-5.32,5.72-13.12,8.58-23.42,8.58h-14.93v-15.74h-27.55v-27.79h27.55v-.22h-27.79v65.19h45.98c19.44,0,33.74-4.83,42.89-14.5,9.15-9.66,13.73-23.87,13.73-42.63s-4.58-33.14-13.73-42.81c-9.15-9.66-23.45-14.5-42.89-14.5Z"/>
  <rect class="cls-1" x="227.69" y="114.64" width="27.79" height="65.19"/>
  <polygon class="cls-2" points="281.12 142.65 308.67 142.65 308.91 142.65 308.91 114.86 308.67 114.86 281.12 114.86 281.12 142.65"/>
  <g>
    <path class="cls-1" d="m228.33,206.16v-13.18h-5.19v-1.5h11.95v1.5h-5.17v13.18h-1.58Z"/>
    <path class="cls-1" d="m243.09,206.38c-1.45,0-2.67-.28-3.64-.85-.98-.56-1.71-1.4-2.2-2.52-.49-1.11-.74-2.51-.74-4.18,0-2.49.55-4.37,1.66-5.64,1.11-1.27,2.75-1.9,4.92-1.9,1.47,0,2.69.28,3.66.85.98.56,1.71,1.4,2.2,2.52.49,1.11.74,2.51.74,4.18,0,2.49-.55,4.37-1.66,5.64-1.11,1.27-2.75,1.9-4.94,1.9Zm0-1.5c1.16,0,2.1-.21,2.84-.64.73-.43,1.27-1.08,1.62-1.98.34-.89.52-2.04.52-3.43s-.17-2.53-.52-3.42c-.34-.89-.88-1.55-1.62-1.98s-1.68-.65-2.84-.65-2.08.22-2.82.65-1.27,1.09-1.62,1.98c-.34.89-.52,2.03-.52,3.42s.17,2.54.52,3.43c.34.9.88,1.55,1.62,1.98.73.43,1.67.64,2.82.64Z"/>
    <path class="cls-1" d="m259.13,206.38c-1.5,0-2.75-.28-3.76-.85-1.01-.56-1.77-1.41-2.28-2.53-.51-1.12-.76-2.52-.76-4.19s.25-3.06.76-4.18,1.27-1.95,2.28-2.51c1.01-.56,2.27-.84,3.76-.84.81,0,1.6.08,2.38.24.78.16,1.52.41,2.24.75v1.65c-.69-.31-1.41-.58-2.16-.8-.75-.23-1.51-.34-2.29-.34-1.23,0-2.25.22-3.05.65-.8.43-1.39,1.09-1.77,1.98-.38.89-.57,2.02-.57,3.4s.19,2.52.57,3.41c.38.89.97,1.56,1.77,1.99.8.43,1.81.65,3.05.65.59,0,1.16-.04,1.72-.13.56-.09,1.11-.22,1.65-.4v-4.18h-3.54v-1.54h5.13v6.62c-.81.38-1.64.67-2.49.86s-1.73.29-2.64.29Z"/>
    <path class="cls-1" d="m274.02,206.38c-1.45,0-2.67-.28-3.64-.85-.98-.56-1.71-1.4-2.2-2.52-.49-1.11-.74-2.51-.74-4.18,0-2.49.55-4.37,1.66-5.64,1.11-1.27,2.75-1.9,4.92-1.9,1.47,0,2.69.28,3.66.85.98.56,1.71,1.4,2.2,2.52.49,1.11.74,2.51.74,4.18,0,2.49-.55,4.37-1.66,5.64-1.11,1.27-2.75,1.9-4.94,1.9Zm0-1.5c1.16,0,2.1-.21,2.84-.64.73-.43,1.27-1.08,1.62-1.98.34-.89.52-2.04.52-3.43s-.17-2.53-.52-3.42c-.34-.89-.88-1.55-1.62-1.98s-1.68-.65-2.84-.65-2.08.22-2.82.65-1.27,1.09-1.62,1.98c-.34.89-.52,2.03-.52,3.42s.17,2.54.52,3.43c.34.9.88,1.55,1.62,1.98.73.43,1.67.64,2.82.64Z"/>
    <path class="cls-1" d="m287.24,206.16v-13.18h-5.19v-1.5h11.95v1.5h-5.17v13.18h-1.58Z"/>
    <path class="cls-1" d="m302.05,206.38c-1.82,0-3.23-.54-4.23-1.61-1-1.07-1.51-2.6-1.51-4.6v-8.69h1.58v8.78c0,1.57.35,2.73,1.06,3.49.7.76,1.74,1.13,3.1,1.13s2.41-.38,3.12-1.13c.72-.75,1.08-1.92,1.08-3.49v-8.78h1.54v8.69c0,1.33-.23,2.46-.68,3.39-.46.92-1.11,1.62-1.96,2.1-.85.48-1.88.72-3.1.72Z"/>
    <path class="cls-1" d="m311.53,206.16v-14.67h1.58v13.13h7.5v1.54h-9.09Z"/>
    <path class="cls-1" d="m321.61,206.16l5.85-14.67h1.58l5.83,14.67h-1.69l-5.08-13.2.33-.04-5.1,13.24h-1.72Zm2.57-4.58l.68-1.52h7.19l.11,1.52h-7.99Z"/>
    <path class="cls-1" d="m338.92,206.16l-4.71-14.67h1.67l4.2,13.31h-.48l4-13.31h1.58l4.14,13.51h-.62l4.2-13.51h1.67l-4.73,14.67h-1.61l-4.11-13h.53l-4.11,13h-1.63Z"/>
    <path class="cls-1" d="m362.7,206.38c-1.45,0-2.67-.28-3.64-.85-.98-.56-1.71-1.4-2.2-2.52-.49-1.11-.74-2.51-.74-4.18,0-2.49.55-4.37,1.66-5.64,1.11-1.27,2.75-1.9,4.92-1.9,1.47,0,2.69.28,3.66.85s1.71,1.4,2.2,2.52.74,2.51.74,4.18c0,2.49-.55,4.37-1.66,5.64-1.11,1.27-2.75,1.9-4.94,1.9Zm0-1.5c1.16,0,2.1-.21,2.84-.64.73-.43,1.27-1.08,1.62-1.98.34-.89.52-2.04.52-3.43s-.17-2.53-.52-3.42c-.34-.89-.88-1.55-1.62-1.98-.73-.43-1.68-.65-2.84-.65s-2.08.22-2.82.65-1.27,1.09-1.62,1.98c-.34.89-.52,2.03-.52,3.42s.17,2.54.52,3.43c.34.9.88,1.55,1.62,1.98.73.43,1.67.64,2.82.64Z"/>
    <path class="cls-1" d="m378.57,206.16v-14.67h5.9c2.49,0,4.33.62,5.5,1.86,1.17,1.24,1.76,3.07,1.76,5.49s-.59,4.23-1.76,5.47c-1.17,1.24-3.01,1.86-5.5,1.86h-5.9Zm3.56-2.75h1.91c1.32,0,2.32-.37,3-1.1.68-.73,1.02-1.89,1.02-3.48s-.34-2.78-1.02-3.51-1.68-1.09-3-1.09h-1.91v9.17Z"/>
    <path class="cls-1" d="m394.21,206.16v-14.67h3.56v14.67h-3.56Z"/>
    <path class="cls-1" d="m407.43,206.47c-1.44,0-2.69-.26-3.77-.77s-1.91-1.33-2.51-2.45c-.59-1.12-.89-2.59-.89-4.41s.3-3.25.89-4.38c.59-1.13,1.43-1.96,2.51-2.5,1.08-.54,2.33-.8,3.77-.8.92,0,1.83.1,2.71.29s1.72.45,2.53.79v3.23c-.88-.45-1.7-.82-2.45-1.1-.76-.28-1.54-.42-2.34-.42s-1.55.15-2.15.44c-.59.29-1.04.8-1.35,1.51-.31.71-.46,1.68-.46,2.92s.16,2.18.47,2.89c.32.71.76,1.22,1.33,1.53.57.31,1.24.46,2,.46.4,0,.77-.03,1.11-.08.34-.05.65-.14.91-.27v-2.6h-2.42v-2.77h5.98v6.91c-.91.5-1.86.89-2.85,1.17-.99.28-2,.42-3.03.42Z"/>
    <path class="cls-1" d="m416.43,206.16v-14.67h3.56v14.67h-3.56Z"/>
    <path class="cls-1" d="m426.19,206.16v-11.92h-4.11v-2.75h11.86v2.75h-4.18v11.92h-3.56Z"/>
    <path class="cls-1" d="m433.43,206.16l5.54-14.67h3.89l5.19,14.67h-3.65l-4.69-13.84,1.74-.15-4.66,13.99h-3.37Zm3.12-3.17l.73-2.62h6.67l.33,2.62h-7.72Z"/>
    <path class="cls-1" d="m449.91,206.16v-14.67h3.56v11.88h6.38v2.79h-9.94Z"/>
    <path class="cls-1" d="m468.19,206.16v-14.67h3.63l5.04,7.02-1.94.07,5.21-7.08h3.54v14.67h-3.56v-11.99l.7,1.14-5.02,6.67-4.97-6.78.77-.53v11.48h-3.41Z"/>
    <path class="cls-1" d="m486.8,206.16v-14.67h10.05v2.75h-6.49v3.19h5.63v2.77h-5.63v3.21h6.49v2.75h-10.05Z"/>
    <path class="cls-1" d="m499.85,206.16v-14.67h3.04l7.55,10.16-1.06,2.2v-12.36h3.28v14.67h-2.68l-7.68-10.03.84-1.61v11.64h-3.28Z"/>
    <path class="cls-1" d="m522.53,206.62c-2.26,0-3.95-.48-5.07-1.44-1.12-.96-1.68-2.46-1.68-4.5v-9.2h3.72v9.04c0,1.13.23,1.97.68,2.51.45.54,1.18.81,2.18.81.91,0,1.62-.27,2.12-.81.51-.54.76-1.38.76-2.51v-9.04h3.39v9.2c0,1.36-.26,2.48-.78,3.35-.52.87-1.24,1.52-2.14,1.95-.91.42-1.97.64-3.17.64Z"/>
  </g>
  <path class="cls-3" d="m186.91,173.25c-.11.06-.21.13-.32.19.05-.16.1-.32.32-.19Z"/>
  <path class="cls-3" d="m189.22,68.79c-.11-.06-.21-.13-.32-.19.2-.09.26.05.32.19Z"/>
  <path class="cls-1" d="m149.44,183.97c-3.96,0-7.91,0-11.87,0-3.87-.01-8.08-3.37-9.45-7.17-.47-1.31-.54-2.61-.54-3.94,0-7.63-.04-15.26.03-22.89.02-2.19.98-4.12,2.35-5.84,2.6-3.26,6.1-4.23,10.08-4.2,6.64.04,13.29-.08,19.93.04,5.46.1,10.79,3.51,11.45,9.7.1.92.22,1.84.22,2.77,0,6.64-.01,13.28.01,19.93.01,3.38-1.09,6.21-3.55,8.61-2.09,2.04-4.5,3.02-7.35,3.03-3.77.02-7.54,0-11.31,0,0-.01,0-.02,0-.03Z"/>
  <path class="cls-1" d="m76.14,162.21c0-4,.03-8,0-12-.04-4.2,4.25-9.23,8.25-9.84,2.15-.33,4.26-.42,6.39-.43,6.03-.03,12.05-.13,18.08.03,3.56.1,6.73,1.49,8.97,4.42,1.53,2.01,2.33,4.37,2.36,6.88.06,7.25.02,14.5.02,21.75,0,5.82-5.02,10.98-10.71,10.98-8,0-16.01.15-24-.1-3.69-.11-6.36-2.45-8.11-5.68-.81-1.49-1.29-3.08-1.25-4.86.09-3.72.03-7.44.03-11.16Z"/>
  <path class="cls-1" d="m103.67,88.51c-3.45,3.12-7,5.91-10.05,9.21-1.75,1.89-3.57,3.72-4.27,6.44-.89,3.44,1.33,8.19,5.62,8.89,3.04.5,5.54-.69,7.77-2.49,4.5-3.65,8.08-8.19,11.79-12.6,1.25-1.49,2.54-2.94,3.88-4.48,1.15,1.85,1.76,3.8,1.77,5.86.05,7.44.03,14.89.02,22.33,0,5.01-3.48,9.36-8.35,10.58-.91.23-1.82.32-2.74.32-7.73,0-15.45.1-23.18-.07-4.3-.09-7.89-3.53-9.24-7.25-.56-1.54-.55-3.09-.55-4.67,0-7.02.04-14.04-.01-21.06-.04-5.07,3.25-9.07,7.99-10.69.69-.24,1.48-.3,2.22-.31,5.73-.02,11.45-.01,17.34-.01Z"/>
  <path class="cls-1" d="m131.05,91.46c1.7,2.01,3.34,3.95,4.96,5.9,1.18,1.42,2.27,2.9,3.49,4.27,2.17,2.44,4.3,4.93,6.66,7.16,1.46,1.38,2.81,2.93,4.66,3.89,3.5,1.82,7.03.85,9.16-1.48,2.74-3.01,2.89-6.33.73-9.43-2.28-3.26-5.36-5.89-8.34-8.54-1.72-1.53-3.46-3.02-5.41-4.73,5.08,0,9.89-.33,14.63.08,6.12.52,10.03,5.39,10.03,11.22,0,6.97-.02,13.94.01,20.91.02,3.48-1.11,6.36-3.61,8.88-2,2.02-4.36,2.88-7,2.91-8.01.09-16.02.18-24.02-.05-4.03-.11-7.08-2.82-8.83-7.09-.46-1.13-.61-2.31-.61-3.52,0-7.54.03-15.07-.01-22.61-.02-2.97,1.23-5.86,3.48-7.79Z"/>
  <path class="cls-1" d="m86.99,36.44c.81-.78,1.49-.79,2.19-.15,5.65,5.11,11.3,10.23,16.95,15.34.98.88.99.87,1.92.12-.02-.43-.36-.64-.62-.9-5.45-5.31-10.5-11.02-16.02-16.25-.52-.49-1.28-1.11-.56-1.84.62-.62,1.4-.35,2.07.24,4.82,4.28,9.64,8.55,14.48,12.8,2.52,2.21,5.06,4.41,7.63,6.56,3.74,3.12,4.09,7.2,3.12,11.5-.34,1.53.08,2.55.95,3.51,1.85,2.05,3.75,4.07,5.72,6.01,1.75,1.72,3.76,3.2,5.47,4.91,1.88,1.86,4.01,3.43,5.84,5.35,1.39,1.46,3.27,2.51,4.8,3.91,2.33,2.14,4.75,4.21,7.2,6.19,3.08,2.48,5.86,5.25,8.66,8,1.11,1.09,2.07,2.31,2.16,4,.11,2.03-1.22,4.04-3.13,4.77-1.61.62-3.1.19-4.23-.78-3.31-2.85-6.37-5.97-9.19-9.34-2.17-2.6-4.46-5.1-6.57-7.75-1.24-1.56-2.43-3.2-3.83-4.6-2.24-2.23-4.25-4.66-6.32-7.04-3.12-3.58-6.62-6.76-10.02-10.04-1.26-1.22-2.74-1.23-4.37-.88-4.52.97-8.24-.22-11.31-3.87-3.99-4.76-8.26-9.28-12.36-13.94-2.16-2.45-4.26-4.96-6.5-7.34-.49-.52-1.3-1.28-.43-2.05.78-.69,1.43-.04,2.03.54,5.52,5.37,11.06,10.73,16.59,16.09.16.16.35.28.57.46.73-.59.76-1.16.17-1.79-3.31-3.57-6.61-7.14-9.91-10.72-2-2.17-3.99-4.34-5.96-6.53-.37-.41-.72-.97-.15-1.49.5-.45.95-.17,1.36.21,2.92,2.71,5.83,5.42,8.76,8.11,2.86,2.63,5.74,5.23,8.6,7.85.43.4.92.52,1.37.11.56-.51-.03-.83-.32-1.14-3.46-3.75-6.93-7.49-10.41-11.24-2.12-2.29-4.25-4.57-6.42-6.91Z"/>
  <path class="cls-1" d="m129.91,75.48c-1-1-1.92-1.93-2.95-2.96,1.68-1.44,2.97-3.35,4.64-4.91,1.4-1.3,2.46-2.85,3.36-4.52.46-.85.29-1.78.07-2.68-.53-2.23-.96-4.41-.48-6.77.19-.95.42-1.91.81-2.7.83-1.64,1.33-3.47,2.75-4.81,1.41-1.32,2.56-2.87,4.05-4.16,1.6-1.39,3.61-2.23,5-3.91.42-.51,1.47-.78,2.03-.92,3.38-.82,6.73-1.91,10.34-1.6,4.43.38,7.47,3.12,7.6,7.78.04,1.48.46,3.17.11,4.39-.55,1.89-1.03,3.87-1.95,5.69-1.74,3.44-3.87,6.54-6.66,9.23-2.62,2.52-5.63,4.39-9.1,5.32-2.06.55-4.24.82-6.38-.11-2.56-1.11-4.55-.25-6.41,1.76-.93,1.01-2.43,1.56-3.32,2.68-1.03,1.3-2.56,1.95-3.53,3.2Zm33.24-28.67c-4.69,6.71-9.53,13.02-16.59,17.24,5.17.65,15.55-10.06,16.59-17.24Z"/>
  <path class="cls-2" d="m186.38,198.73v-1.51c0-7.96,0-15.91,0-23.87,0-2.71,1.04-3.77,3.64-3.77,2.41,0,3.67,1.32,3.67,3.88,0,9.51,0,19.02,0,28.53,0,2.59-1.46,4.07-4.07,4.07-9.61.01-19.21.01-28.82,0-1.97,0-3.2-.82-3.77-2.39-.49-1.35.04-3.14,1.29-4.12.83-.65,1.82-.82,2.86-.82,8.33.01,16.67,0,25.2,0Z"/>
  <path class="cls-2" d="m61.4,198.73c8.51,0,16.84,0,25.18,0,1.4,0,2.61.23,3.48,1.57,1.51,2.31.18,5.43-2.55,5.73-.37.04-.75.03-1.13.03-9.32,0-18.65-.07-27.97.04-3.12.04-4.36-1.56-4.34-4.36.06-9.42.02-18.84.03-28.26,0-1.03-.02-2.05.82-2.87.93-.9,3.25-1.53,4.35-.93,1.33.72,2.15,1.84,2.14,3.48-.02,7.96-.01,15.92-.01,23.88,0,.51,0,1.02,0,1.68Z"/>
  <path class="cls-2" d="m61.4,73.76c0,8.59,0,16.97,0,25.35,0,2.73-2,4.49-4.49,3.99-1.51-.3-2.79-1.78-2.8-3.42-.02-9.89-.03-19.77,0-29.66,0-2.07,1.53-3.57,3.65-3.58,9.79-.03,19.58-.03,29.37,0,2.34,0,3.4,1.4,3.41,4.24,0,1.74-1.41,3.05-3.46,3.06-8,.03-16.01.02-24.01.02-.51,0-1.01,0-1.67,0Z"/>
  <path class="cls-1" d="m120.63,78.37c1.34,1.2,2.43,2.46,3.57,3.8-1.51,1.37-2.74,2.97-4.04,4.52-3.22,3.83-6.41,7.69-9.67,11.48-3.04,3.54-6.1,7.1-9.68,10.12-2.16,1.82-4.93,2.54-6.73,1.36-1.99-1.3-2.85-4.07-1.09-6.62,1.74-2.53,4.03-4.57,6.25-6.64,2.99-2.79,6.18-5.37,9.32-8,3.98-3.34,7.99-6.64,12.08-10.02Z"/>
</svg>